<svg version="1.1" viewBox="0.0 0.0 621.2887139107612 157.4041994750656" fill="none" stroke="none" stroke-linecap="square" stroke-miterlimit="10" xmlns:xlink="http://www.w3.org/1999/xlink" xmlns="http://www.w3.org/2000/svg"><clipPath id="p.0"><path d="m0 0l621.2887 0l0 157.4042l-621.2887 0l0 -157.4042z" clip-rule="nonzero"/></clipPath><g clip-path="url(#p.0)"><path fill="#000000" fill-opacity="0.0" d="m0 0l621.2887 0l0 157.4042l-621.2887 0z" fill-rule="evenodd"/><path fill="#cc0000" d="m6.8950133 31.9401l0 0c0 -12.912994 10.46805 -23.381044 23.381044 -23.381044l560.73395 0c6.20105 0 12.148132 2.4633532 16.532898 6.8481493c4.3848267 4.384797 6.8481445 10.331857 6.8481445 16.532894l0 93.52137c0 12.912994 -10.468018 23.381042 -23.381042 23.381042l-560.73395 0c-12.912994 0 -23.381044 -10.468048 -23.381044 -23.381042z" fill-rule="evenodd"/><path fill="#000000" fill-opacity="0.0" d="m32.94488 20.52756l549.2598 0l0 116.34645l-549.2598 0z" fill-rule="evenodd"/><path fill="#ffffff" d="m107.25058 106.32755l-12.578125 0l-5.0 -13.015625l-22.890625 0l-4.734379 13.015625l-12.265625 0l22.312504 -57.265625l12.21875 0l22.9375 57.265625zm-21.296875 -22.65625l-7.890625 -21.25l-7.734375 21.25l15.625 0zm65.39844 22.65625l-10.203125 0l0 -6.09375q-2.53125 3.546875 -6.0 5.296875q-3.453125 1.734375 -6.96875 1.734375q-7.140625 0 -12.25 -5.765625q-5.09375 -5.765625 -5.09375 -16.078125q0 -10.546875 4.953125 -16.03125q4.96875 -5.484375 12.546875 -5.484375q6.953125 0 12.03125 5.78125l0 -20.625l10.984375 0l0 57.265625zm-29.296875 -21.640625q0 6.640625 1.828125 9.609375q2.65625 4.296875 7.421875 4.296875q3.796875 0 6.453125 -3.21875q2.65625 -3.234375 2.65625 -9.640625q0 -7.140625 -2.578125 -10.28125q-2.578125 -3.15625 -6.609375 -3.15625q-3.90625 0 -6.546875 3.109375q-2.625 3.109375 -2.625 9.28125zm39.289062 -19.84375l10.125 0l0 5.65625q5.421875 -6.59375 12.921875 -6.59375q3.984375 0 6.90625 1.640625q2.9375 1.640625 4.8125 4.953125q2.734375 -3.3125 5.890625 -4.953125q3.171875 -1.640625 6.765625 -1.640625q4.578125 0 7.734375 1.859375q3.171875 1.84375 4.734375 5.4375q1.125 2.65625 1.125 8.59375l0 26.53125l-10.96875 0l0 -23.71875q0 -6.171875 -1.140625 -7.96875q-1.515625 -2.34375 -4.6875 -2.34375q-2.296875 0 -4.328125 1.40625q-2.03125 1.40625 -2.9375 4.125q-0.890625 2.71875 -0.890625 8.578125l0 19.921875l-10.984375 0l0 -22.734375q0 -6.0625 -0.59375 -7.8125q-0.578125 -1.765625 -1.8125 -2.625q-1.21875 -0.859375 -3.328125 -0.859375q-2.546875 0 -4.578125 1.375q-2.03125 1.359375 -2.90625 3.9375q-0.875 2.578125 -0.875 8.5625l0 20.15625l-10.984375 0l0 -41.484375zm71.96094 -5.625l0 -10.15625l10.96875 0l0 10.15625l-10.96875 0zm0 47.109375l0 -41.484375l10.96875 0l0 41.484375l-10.96875 0zm59.960938 0l-10.984375 0l0 -21.171875q0 -6.71875 -0.703125 -8.6875q-0.703125 -1.984375 -2.28125 -3.078125q-1.578125 -1.09375 -3.8125 -1.09375q-2.84375 0 -5.109375 1.5625q-2.265625 1.5625 -3.109375 4.140625q-0.84375 2.578125 -0.84375 9.53125l0 18.796875l-10.96875 0l0 -41.484375l10.1875 0l0 6.09375q5.4375 -7.03125 13.671875 -7.03125q3.640625 0 6.640625 1.3125q3.015625 1.296875 4.546875 3.328125q1.546875 2.03125 2.15625 4.609375q0.609375 2.578125 0.609375 7.390625l0 25.78125zm33.546875 0l0 -57.265625l11.25 0l23.4375 38.234375l0 -38.234375l10.75 0l0 57.265625l-11.609375 0l-23.078125 -37.34375l0 37.34375l-10.75 0zm55.039062 -21.328125q0 -5.46875 2.6875 -10.578125q2.703125 -5.125 7.640625 -7.8125q4.953125 -2.703125 11.046875 -2.703125q9.40625 0 15.421875 6.109375q6.015625 6.109375 6.015625 15.453125q0 9.40625 -6.078125 15.609375q-6.0625 6.1875 -15.28125 6.1875q-5.703125 0 -10.890625 -2.578125q-5.171875 -2.578125 -7.875 -7.5625q-2.6875 -4.984375 -2.6875 -12.125zm11.25 0.578125q0 6.171875 2.921875 9.453125q2.9375 3.28125 7.234375 3.28125q4.296875 0 7.203125 -3.28125q2.921875 -3.28125 2.921875 -9.53125q0 -6.09375 -2.921875 -9.375q-2.90625 -3.28125 -7.203125 -3.28125q-4.296875 0 -7.234375 3.28125q-2.921875 3.28125 -2.921875 9.453125zm59.179688 -20.734375l0 8.75l-7.5 0l0 16.71875q0 5.078125 0.21875 5.921875q0.21875 0.828125 0.96875 1.375q0.765625 0.546875 1.859375 0.546875q1.53125 0 4.421875 -1.046875l0.9375 8.515625q-3.828125 1.640625 -8.671875 1.640625q-2.96875 0 -5.359375 -1.0q-2.375 -1.0 -3.5 -2.578125q-1.109375 -1.578125 -1.53125 -4.28125q-0.359375 -1.90625 -0.359375 -7.734375l0 -18.078125l-5.03125 0l0 -8.75l5.03125 0l0 -8.25l11.015625 -6.40625l0 14.65625l7.5 0zm7.625 -5.625l0 -10.15625l10.96875 0l0 10.15625l-10.96875 0zm0 47.109375l0 -41.484375l10.96875 0l0 41.484375l-10.96875 0zm58.398407 -29.21875l-10.8280945 1.953125q-0.546875 -3.25 -2.484375 -4.890625q-1.921875 -1.640625 -5.015625 -1.640625q-4.09375 0 -6.546875 2.84375q-2.4375 2.828125 -2.4375 9.46875q0 7.375 2.484375 10.421875q2.484375 3.046875 6.65625 3.046875q3.125 0 5.109375 -1.765625q2.0 -1.78125 2.828125 -6.125l10.7812195 1.84375q-1.6875 7.421875 -6.453125 11.21875q-4.7655945 3.78125 -12.7655945 3.78125q-9.109375 0 -14.515625 -5.734375q-5.40625 -5.75 -5.40625 -15.90625q0 -10.28125 5.421875 -16.0q5.4375 -5.71875 14.6875 -5.71875q7.578125 0 12.046875 3.265625q4.4843445 3.25 6.4374695 9.9375zm32.335938 16.015625l10.9375 1.828125q-2.109375 6.015625 -6.65625 9.171875q-4.546875 3.140625 -11.390625 3.140625q-10.8125 0 -16.015625 -7.078125q-4.09375 -5.65625 -4.09375 -14.296875q0 -10.3125 5.390625 -16.140625q5.390625 -5.84375 13.625 -5.84375q9.265625 0 14.609375 6.109375q5.359375 6.109375 5.125 18.734375l-27.5 0q0.109375 4.875 2.640625 7.59375q2.546875 2.71875 6.34375 2.71875q2.578125 0 4.328125 -1.40625q1.765625 -1.40625 2.65625 -4.53125zm0.625 -11.09375q-0.109375 -4.765625 -2.453125 -7.25q-2.34375 -2.484375 -5.703125 -2.484375q-3.59375 0 -5.9375 2.625q-2.34375 2.609375 -2.3125 7.109375l16.40625 0z" fill-rule="nonzero"/></g></svg>