<svg version="1.1" viewBox="0.0 0.0 621.2887139107612 157.4041994750656" fill="none" stroke="none" stroke-linecap="square" stroke-miterlimit="10" xmlns:xlink="http://www.w3.org/1999/xlink" xmlns="http://www.w3.org/2000/svg"><clipPath id="p.0"><path d="m0 0l621.2887 0l0 157.4042l-621.2887 0l0 -157.4042z" clip-rule="nonzero"/></clipPath><g clip-path="url(#p.0)"><path fill="#000000" fill-opacity="0.0" d="m0 0l621.2887 0l0 157.4042l-621.2887 0z" fill-rule="evenodd"/><path fill="#cc0000" d="m6.8950133 31.9401l0 0c0 -12.912994 10.46805 -23.381044 23.381044 -23.381044l560.73395 0c6.20105 0 12.148132 2.4633532 16.532898 6.8481493c4.3848267 4.384797 6.8481445 10.331857 6.8481445 16.532894l0 93.52137c0 12.912994 -10.468018 23.381042 -23.381042 23.381042l-560.73395 0c-12.912994 0 -23.381044 -10.468048 -23.381044 -23.381042z" fill-rule="evenodd"/><path fill="#000000" fill-opacity="0.0" d="m33.3832 23.18504l549.2599 0l0 106.64566l-549.2599 0z" fill-rule="evenodd"/><path fill="#ffffff" d="m97.72991 101.30503l-11.328125 0l-4.5 -11.703125l-20.59375 0l-4.25 11.703125l-11.046875 0l20.078125 -51.54687l11.0 0l20.640625 51.54687zm-19.15625 -20.390625l-7.109375 -19.124996l-6.953125 19.124996l14.0625 0zm58.5586 20.390625l-9.875008 0l0 -19.0625q0 -6.046875 -0.640625 -7.8125q-0.625 -1.78125 -2.046875 -2.765625q-1.421875 -0.984375 -3.421875 -0.984375q-2.578125 0 -4.625 1.40625q-2.03125 1.40625 -2.78125 3.734375q-0.75 2.3125 -0.75 8.578125l0 16.90625l-9.890625 0l0 -37.343746l9.1875 0l0 5.484371q4.875 -6.328121 12.296875 -6.328121q3.265625 0 5.9687576 1.1874962q2.71875 1.171875 4.109375 3.0q1.390625 1.828125 1.921875 4.15625q0.546875 2.3125 0.546875 6.640625l0 23.203125zm43.98047 0l-9.875 0l0 -19.0625q0 -6.046875 -0.640625 -7.8125q-0.625 -1.78125 -2.046875 -2.765625q-1.421875 -0.984375 -3.421875 -0.984375q-2.578125 0 -4.625 1.40625q-2.03125 1.40625 -2.78125 3.734375q-0.75 2.3125 -0.75 8.578125l0 16.90625l-9.890625 0l0 -37.343746l9.1875 0l0 5.484371q4.875 -6.328121 12.296875 -6.328121q3.265625 0 5.96875 1.1874962q2.71875 1.171875 4.109375 3.0q1.390625 1.828125 1.921875 4.15625q0.546875 2.3125 0.546875 6.640625l0 23.203125zm7.7460938 -19.203125q0 -4.921875 2.421875 -9.515625q2.421875 -4.609375 6.859375 -7.03125q4.453125 -2.4374962 9.9375 -2.4374962q8.484375 0 13.890625 5.515621q5.421875 5.5 5.421875 13.890625q0 8.484375 -5.46875 14.0625q-5.46875 5.5625 -13.765625 5.5625q-5.140625 0 -9.796875 -2.3125q-4.65625 -2.328125 -7.078125 -6.8125q-2.421875 -4.484375 -2.421875 -10.921875zm10.125 0.53125q0 5.5625 2.625 8.515625q2.640625 2.953125 6.515625 2.953125q3.859375 0 6.46875 -2.953125q2.625 -2.953125 2.625 -8.578125q0 -5.484375 -2.625 -8.4375q-2.609375 -2.953125 -6.46875 -2.953125q-3.875 0 -6.515625 2.953125q-2.625 2.953125 -2.625 8.5zm60.714844 18.671875l0 -5.59375q-2.046875 2.984375 -5.375 4.71875q-3.3125 1.71875 -7.0 1.71875q-3.765625 0 -6.765625 -1.65625q-2.984375 -1.65625 -4.328125 -4.640625q-1.328125 -2.984375 -1.328125 -8.265625l0 -23.624996l9.890625 0l0 17.156246q0 7.875 0.53125 9.65625q0.546875 1.78125 1.984375 2.8125q1.453125 1.03125 3.671875 1.03125q2.53125 0 4.53125 -1.375q2.0 -1.390625 2.734375 -3.453125q0.75 -2.0625 0.75 -10.078125l0 -15.749996l9.875 0l0 37.343746l-9.171875 0zm53.35547 0l-9.875 0l0 -19.0625q0 -6.046875 -0.640625 -7.8125q-0.625 -1.78125 -2.046875 -2.765625q-1.421875 -0.984375 -3.421875 -0.984375q-2.578125 0 -4.625 1.40625q-2.03125 1.40625 -2.78125 3.734375q-0.75 2.3125 -0.75 8.578125l0 16.90625l-9.890625 0l0 -37.343746l9.1875 0l0 5.484371q4.875 -6.328121 12.296875 -6.328121q3.265625 0 5.96875 1.1874962q2.71875 1.171875 4.109375 3.0q1.390625 1.828125 1.921875 4.15625q0.546875 2.3125 0.546875 6.640625l0 23.203125zm42.57422 -26.296875l-9.734375 1.75q-0.484375 -2.90625 -2.234375 -4.375q-1.734375 -1.484375 -4.515625 -1.484375q-3.6875 0 -5.890625 2.546875q-2.1875 2.546875 -2.1875 8.515625q0 6.65625 2.21875 9.40625q2.234375 2.734375 6.0 2.734375q2.8125 0 4.609375 -1.59375q1.796875 -1.609375 2.53125 -5.515625l9.703125 1.65625q-1.515625 6.671875 -5.8125 10.09375q-4.28125 3.40625 -11.484375 3.40625q-8.1875 0 -13.0625 -5.171875q-4.875 -5.171875 -4.875 -14.3125q0 -9.234375 4.890625 -14.390625q4.890625 -5.156246 13.21875 -5.156246q6.828125 0 10.84375 2.9374962q4.03125 2.9375 5.78125 8.953125zm29.121094 14.40625l9.84375 1.65625q-1.90625 5.421875 -6.0 8.25q-4.09375 2.828125 -10.25 2.828125q-9.734375 0 -14.40625 -6.359375q-3.703125 -5.109375 -3.703125 -12.875q0 -9.28125 4.84375 -14.53125q4.859375 -5.265621 12.28125 -5.265621q8.328125 0 13.140625 5.515621q4.828125 5.5 4.609375 16.84375l-24.75 0q0.109375 4.40625 2.390625 6.84375q2.296875 2.4375 5.703125 2.4375q2.3125 0 3.890625 -1.265625q1.59375 -1.265625 2.40625 -4.078125zm0.5625 -9.984375q-0.109375 -4.28125 -2.21875 -6.515625q-2.109375 -2.234375 -5.140625 -2.234375q-3.234375 0 -5.34375 2.359375q-2.109375 2.359375 -2.0625 6.390625l14.765625 0zm17.121094 -15.468746l9.09375 0l0 5.109371q4.890625 -5.953121 11.640625 -5.953121q3.59375 0 6.21875 1.4843712q2.640625 1.46875 4.328125 4.46875q2.46875 -3.0 5.3125 -4.46875q2.84375 -1.4843712 6.078125 -1.4843712q4.109375 0 6.953125 1.6718712q2.859375 1.671875 4.265625 4.90625q1.015625 2.390625 1.015625 7.734375l0 23.875l-9.875 0l0 -21.34375q0 -5.546875 -1.015625 -7.171875q-1.375 -2.109375 -4.21875 -2.109375q-2.078125 0 -3.90625 1.265625q-1.828125 1.265625 -2.640625 3.71875q-0.8125 2.4375 -0.8125 7.703125l0 17.9375l-9.875 0l0 -20.46875q0 -5.4375 -0.53125 -7.015625q-0.515625 -1.59375 -1.625 -2.359375q-1.109375 -0.78125 -3.015625 -0.78125q-2.28125 0 -4.109375 1.234375q-1.828125 1.234375 -2.625 3.5625q-0.78125 2.3125 -0.78125 7.6875l0 18.140625l-9.875 0l0 -37.343746zm86.37891 25.453121l9.84375 1.65625q-1.90625 5.421875 -6.0 8.25q-4.09375 2.828125 -10.25 2.828125q-9.734375 0 -14.40625 -6.359375q-3.703125 -5.109375 -3.703125 -12.875q0 -9.28125 4.84375 -14.53125q4.859375 -5.265621 12.28125 -5.265621q8.328125 0 13.140625 5.515621q4.828125 5.5 4.609375 16.84375l-24.75 0q0.109375 4.40625 2.390625 6.84375q2.296875 2.4375 5.703125 2.4375q2.3125 0 3.890625 -1.265625q1.59375 -1.265625 2.40625 -4.078125zm0.5625 -9.984375q-0.109375 -4.28125 -2.21875 -6.515625q-2.109375 -2.234375 -5.140625 -2.234375q-3.234375 0 -5.34375 2.359375q-2.109375 2.359375 -2.0625 6.390625l14.765625 0zm51.808594 21.875l-9.875 0l0 -19.0625q0 -6.046875 -0.640625 -7.8125q-0.625 -1.78125 -2.046875 -2.765625q-1.421875 -0.984375 -3.421875 -0.984375q-2.578125 0 -4.625 1.40625q-2.03125 1.40625 -2.78125 3.734375q-0.75 2.3125 -0.75 8.578125l0 16.90625l-9.890625 0l0 -37.343746l9.1875 0l0 5.484371q4.875 -6.328121 12.296875 -6.328121q3.265625 0 5.96875 1.1874962q2.71875 1.171875 4.109375 3.0q1.390625 1.828125 1.921875 4.15625q0.546875 2.3125 0.546875 6.640625l0 23.203125zm27.152283 -37.343746l0 7.874996l-6.75 0l0 15.046875q0 4.578125 0.1875 5.34375q0.1875 0.75 0.875 1.25q0.6875 0.484375 1.671875 0.484375q1.375 0 3.96875 -0.953125l0.84375 7.65625q-3.4375 1.484375 -7.796875 1.484375q-2.671875 0 -4.828125 -0.890625q-2.140625 -0.90625 -3.140625 -2.328125q-1.0 -1.421875 -1.390625 -3.84375q-0.3125 -1.734375 -0.3125 -6.96875l0 -16.28125l-4.53125 0l0 -7.874996l4.53125 0l0 -7.40625l9.921875 -5.765625l0 13.171875l6.75 0z" fill-rule="nonzero"/></g></svg>