<svg version="1.1" viewBox="0.0 0.0 621.2887139107612 157.4041994750656" fill="none" stroke="none" stroke-linecap="square" stroke-miterlimit="10" xmlns:xlink="http://www.w3.org/1999/xlink" xmlns="http://www.w3.org/2000/svg"><clipPath id="p.0"><path d="m0 0l621.2887 0l0 157.4042l-621.2887 0l0 -157.4042z" clip-rule="nonzero"/></clipPath><g clip-path="url(#p.0)"><path fill="#000000" fill-opacity="0.0" d="m0 0l621.2887 0l0 157.4042l-621.2887 0z" fill-rule="evenodd"/><path fill="#e69138" d="m6.8950133 31.9401l0 0c0 -12.912994 10.46805 -23.381044 23.381044 -23.381044l560.73395 0c6.20105 0 12.148132 2.4633532 16.532898 6.8481493c4.3848267 4.384797 6.8481445 10.331857 6.8481445 16.532894l0 93.52137c0 12.912994 -10.468018 23.381042 -23.381042 23.381042l-560.73395 0c-12.912994 0 -23.381044 -10.468048 -23.381044 -23.381042z" fill-rule="evenodd"/><path fill="#000000" fill-opacity="0.0" d="m32.94488 15.677165l549.2598 0l0 126.04725l-549.2598 0z" fill-rule="evenodd"/><path fill="#ffffff" d="m108.479095 46.15716l23.25 0q7.859375 0 11.984375 1.203125q5.546875 1.640625 9.5 5.8125q3.953125 4.15625 6.015625 10.203125q2.0625 6.031246 2.0625 14.890621q0 7.765625 -1.9375 13.40625q-2.359375 6.875 -6.75 11.125q-3.296875 3.21875 -8.9375 5.03125q-4.203125 1.328125 -11.25 1.328125l-23.9375 0l0 -62.999996zm12.71875 10.65625l0 41.73437l9.5 0q5.328125 0 7.6875 -0.609375q3.09375 -0.765625 5.125 -2.609375q2.046875 -1.859375 3.328125 -6.09375q1.296875 -4.234375 1.296875 -11.53125q0 -7.3125 -1.296875 -11.21875q-1.28125 -3.9062462 -3.609375 -6.093746q-2.3125 -2.203125 -5.875 -2.96875q-2.65625 -0.609375 -10.4375 -0.609375l-5.71875 0zm50.785156 0.515625l0 -11.171875l12.078125 0l0 11.171875l-12.078125 0zm0 51.82812l0 -45.64062l12.078125 0l0 45.64062l-12.078125 0zm20.199219 -13.015625l12.125 -1.859375q0.765625 3.53125 3.125 5.359375q2.375 1.828125 6.625 1.828125q4.6875 0 7.046875 -1.71875q1.59375 -1.203125 1.59375 -3.234375q0 -1.375 -0.859375 -2.265625q-0.90625 -0.859375 -4.046875 -1.59375q-14.609375 -3.21875 -18.515625 -5.890625q-5.421875 -3.6875 -5.421875 -10.265625q0 -5.9375 4.6875 -9.96875q4.6875 -4.046871 14.53125 -4.046871q9.359375 0 13.90625 3.0624962q4.5625 3.046875 6.28125 9.015625l-11.390625 2.109375q-0.71875 -2.671875 -2.765625 -4.078125q-2.046875 -1.421875 -5.828125 -1.421875q-4.765625 0 -6.828125 1.328125q-1.375 0.953125 -1.375 2.453125q0 1.28125 1.203125 2.1875q1.640625 1.203125 11.28125 3.40625q9.640625 2.1875 13.46875 5.359375q3.78125 3.21875 3.78125 8.984375q0 6.265625 -5.25 10.78125q-5.234375 4.515625 -15.5 4.515625q-9.328125 0 -14.765625 -3.78125q-5.4375 -3.78125 -7.109375 -10.265625zm52.30078 -32.624996l11.125 0l0 6.234371q5.96875 -7.265621 14.21875 -7.265621q4.390625 0 7.609375 1.8124962q3.21875 1.796875 5.28125 5.453125q3.015625 -3.65625 6.484375 -5.453125q3.484375 -1.8124962 7.4375 -1.8124962q5.03125 0 8.5 2.0468712q3.484375 2.046875 5.203125 6.0q1.25 2.921875 1.25 9.453125l0 29.171875l-12.078125 0l0 -26.078125q0 -6.796875 -1.234375 -8.765625q-1.6875 -2.578125 -5.15625 -2.578125q-2.546875 0 -4.78125 1.546875q-2.234375 1.546875 -3.21875 4.53125q-0.984375 2.984375 -0.984375 9.421875l0 21.921875l-12.078125 0l0 -25.015625q0 -6.65625 -0.640625 -8.578125q-0.640625 -1.9375 -2.0 -2.875q-1.359375 -0.953125 -3.671875 -0.953125q-2.796875 0 -5.03125 1.5q-2.234375 1.5 -3.203125 4.34375q-0.96875 2.828125 -0.96875 9.40625l0 22.171875l-12.0625 0l0 -45.64062zm79.13672 -6.1875l0 -11.171875l12.078125 0l0 11.171875l-12.078125 0zm0 51.82812l0 -45.64062l12.078125 0l0 45.64062l-12.078125 0zm20.199219 -13.015625l12.125 -1.859375q0.765625 3.53125 3.125 5.359375q2.375 1.828125 6.625 1.828125q4.6875 0 7.046875 -1.71875q1.59375 -1.203125 1.59375 -3.234375q0 -1.375 -0.859375 -2.265625q-0.90625 -0.859375 -4.046875 -1.59375q-14.609375 -3.21875 -18.515625 -5.890625q-5.421875 -3.6875 -5.421875 -10.265625q0 -5.9375 4.6875 -9.96875q4.6875 -4.046871 14.53125 -4.046871q9.359375 0 13.90625 3.0624962q4.5625 3.046875 6.28125 9.015625l-11.390625 2.109375q-0.71875 -2.671875 -2.765625 -4.078125q-2.046875 -1.421875 -5.828125 -1.421875q-4.765625 0 -6.828125 1.328125q-1.375 0.953125 -1.375 2.453125q0 1.28125 1.203125 2.1875q1.640625 1.203125 11.28125 3.40625q9.640625 2.1875 13.46875 5.359375q3.78125 3.21875 3.78125 8.984375q0 6.265625 -5.25 10.78125q-5.234375 4.515625 -15.5 4.515625q-9.328125 0 -14.765625 -3.78125q-5.4375 -3.78125 -7.109375 -10.265625zm48.941406 0l12.125 -1.859375q0.765625 3.53125 3.125 5.359375q2.375 1.828125 6.625 1.828125q4.6875 0 7.046875 -1.71875q1.59375 -1.203125 1.59375 -3.234375q0 -1.375 -0.859375 -2.265625q-0.90625 -0.859375 -4.046875 -1.59375q-14.609375 -3.21875 -18.515625 -5.890625q-5.421875 -3.6875 -5.421875 -10.265625q0 -5.9375 4.6875 -9.96875q4.6875 -4.046871 14.53125 -4.046871q9.359375 0 13.90625 3.0624962q4.5625 3.046875 6.28125 9.015625l-11.390625 2.109375q-0.71875 -2.671875 -2.765625 -4.078125q-2.046875 -1.421875 -5.828125 -1.421875q-4.765625 0 -6.828125 1.328125q-1.375 0.953125 -1.375 2.453125q0 1.28125 1.203125 2.1875q1.640625 1.203125 11.28125 3.40625q9.640625 2.1875 13.46875 5.359375q3.78125 3.21875 3.78125 8.984375q0 6.265625 -5.25 10.78125q-5.234375 4.515625 -15.5 4.515625q-9.328125 0 -14.765625 -3.78125q-5.4375 -3.78125 -7.109375 -10.265625zm62.222656 -18.703125l-10.953125 -1.96875q1.84375 -6.625 6.34375 -9.796875q4.515625 -3.1874962 13.421875 -3.1874962q8.078125 0 12.03125 1.9218712q3.953125 1.90625 5.5625 4.859375q1.609375 2.9375 1.609375 10.796875l-0.125 14.09375q0 6.015625 0.578125 8.875q0.578125 2.859375 2.171875 6.125l-11.953125 0q-0.46875 -1.203125 -1.15625 -3.5625q-0.296875 -1.078125 -0.4375 -1.421875q-3.09375 3.0 -6.625 4.515625q-3.515625 1.5 -7.5 1.5q-7.046875 0 -11.109375 -3.828125q-4.0625 -3.828125 -4.0625 -9.671875q0 -3.859375 1.84375 -6.890625q1.84375 -3.03125 5.171875 -4.640625q3.34375 -1.609375 9.609375 -2.8125q8.46875 -1.59375 11.734375 -2.96875l0 -1.203125q0 -3.484375 -1.71875 -4.953125q-1.71875 -1.484375 -6.484375 -1.484375q-3.234375 0 -5.046875 1.265625q-1.796875 1.265625 -2.90625 4.4375zm16.15625 9.796875q-2.328125 0.78125 -7.359375 1.859375q-5.015625 1.0625 -6.5625 2.09375q-2.359375 1.6875 -2.359375 4.265625q0 2.53125 1.890625 4.375q1.890625 1.84375 4.8125 1.84375q3.265625 0 6.21875 -2.140625q2.203125 -1.640625 2.890625 -4.0q0.46875 -1.546875 0.46875 -5.890625l0 -2.40625zm23.753906 21.921875l0 -62.999996l12.078125 0l0 62.999996l-12.078125 0z" fill-rule="nonzero"/></g></svg>