<svg version="1.1" viewBox="0.0 0.0 307.40944881889766 162.83202099737534" fill="none" stroke="none" stroke-linecap="square" stroke-miterlimit="10" xmlns:xlink="http://www.w3.org/1999/xlink" xmlns="http://www.w3.org/2000/svg"><clipPath id="p.0"><path d="m0 0l307.40945 0l0 162.83202l-307.40945 0l0 -162.83202z" clip-rule="nonzero"/></clipPath><g clip-path="url(#p.0)"><path fill="#000000" fill-opacity="0.0" d="m0 0l307.40945 0l0 162.83202l-307.40945 0z" fill-rule="evenodd"/><path fill="#6e3219" d="m5.858268 31.362707l0 0c0 -13.866829 11.241286 -25.108114 25.108112 -25.108114l245.94124 0c6.659088 0 13.045441 2.6453109 17.75412 7.353996c4.708679 4.708685 7.354004 11.095032 7.354004 17.754118l0 100.429436c0 13.866837 -11.241272 25.108124 -25.108124 25.108124l-245.94124 0c-13.866827 0 -25.108112 -11.241287 -25.108112 -25.108124z" fill-rule="evenodd"/><path fill="#000000" fill-opacity="0.0" d="m5.858268 12.097113l296.15747 0l0 138.96063l-296.15747 0z" fill-rule="evenodd"/><path fill="#ffffff" d="m61.19915 45.395233l0 57.421875l34.359375 0l0 13.0l-49.859375 0l0 -70.421875l15.5 0zm58.480804 0l0 70.421875l-15.5 0l0 -70.421875l15.5 0zm51.986504 0q8.53125 0 14.375 5.5q5.859375 5.484375 5.859375 13.953125q0 6.65625 -2.78125 11.015625q-2.765625 4.359375 -8.40625 6.625l0 0.1875q4.96875 1.296875 7.609375 5.921875q2.65625 4.625 2.90625 14.171875q0.1875 9.53125 2.734375 13.046875l-15.5 0q-1.359375 -3.421875 -1.84375 -11.078125q-0.71875 -10.40625 -3.484375 -13.40625q-2.765625 -3.015625 -8.5 -3.015625l-15.859375 0l0 27.5l-15.5 0l0 -70.421875l38.390625 0zm-5.59375 31.84375q4.875 0 7.59375 -2.359375q2.71875 -2.375 2.71875 -7.71875q0 -5.0 -2.625 -7.359375q-2.625 -2.375 -7.6875 -2.375l-17.296875 0l0 19.8125l17.296875 0zm76.84013 -31.84375q8.53125 0 14.375 5.5q5.859375 5.484375 5.859375 13.953125q0 6.65625 -2.78125 11.015625q-2.765625 4.359375 -8.40625 6.625l0 0.1875q4.96875 1.296875 7.609375 5.921875q2.65625 4.625 2.90625 14.171875q0.1875 9.53125 2.734375 13.046875l-15.5 0q-1.359375 -3.421875 -1.84375 -11.078125q-0.71875 -10.40625 -3.484375 -13.40625q-2.765625 -3.015625 -8.5 -3.015625l-15.859375 0l0 27.5l-15.5 0l0 -70.421875l38.390625 0zm-5.59375 31.84375q4.875 0 7.59375 -2.359375q2.71875 -2.375 2.71875 -7.71875q0 -5.0 -2.625 -7.359375q-2.625 -2.375 -7.6875 -2.375l-17.296875 0l0 19.8125l17.296875 0z" fill-rule="nonzero"/></g></svg>