<svg version="1.1" viewBox="0.0 0.0 963.1863517060367 282.3622047244094" fill="none" stroke="none" stroke-linecap="square" stroke-miterlimit="10" xmlns:xlink="http://www.w3.org/1999/xlink" xmlns="http://www.w3.org/2000/svg"><clipPath id="p.0"><path d="m0 0l963.18634 0l0 282.3622l-963.18634 0l0 -282.3622z" clip-rule="nonzero"/></clipPath><g clip-path="url(#p.0)"><path fill="#000000" fill-opacity="0.0" d="m0 0l963.18634 0l0 282.3622l-963.18634 0z" fill-rule="evenodd"/><path fill="#c9daf8" d="m382.24014 56.859123l0 0c0 -23.587814 19.121704 -42.70952 42.709534 -42.70952l484.84866 0c11.3272705 0 22.190613 4.4997387 30.200195 12.509327c8.0095825 8.009588 12.509338 18.87292 12.509338 30.20019l0 170.83295c0 23.587814 -19.121704 42.70952 -42.709534 42.70952l-484.84866 0c-23.58783 0 -42.709534 -19.121704 -42.709534 -42.70952z" fill-rule="evenodd"/><path stroke="#c60c30" stroke-width="12.0" stroke-linejoin="round" stroke-linecap="butt" d="m382.24014 56.859123l0 0c0 -23.587814 19.121704 -42.70952 42.709534 -42.70952l484.84866 0c11.3272705 0 22.190613 4.4997387 30.200195 12.509327c8.0095825 8.009588 12.509338 18.87292 12.509338 30.20019l0 170.83295c0 23.587814 -19.121704 42.70952 -42.709534 42.70952l-484.84866 0c-23.58783 0 -42.709534 -19.121704 -42.709534 -42.70952z" fill-rule="evenodd"/><path fill="#c60c30" d="m7.492126 52.691185l0 0c0 -24.738792 20.054754 -44.79355 44.793545 -44.79355l470.41293 0c11.879944 0 23.273376 4.7193065 31.673767 13.119726c8.400452 8.400419 13.119751 19.793835 13.119751 31.67382l0 179.16882c0 24.738785 -20.054749 44.793533 -44.793518 44.793533l-470.41293 0c-24.73879 0 -44.793545 -20.054749 -44.793545 -44.793533z" fill-rule="evenodd"/><path fill="#000000" fill-opacity="0.0" d="m27.948898 17.03056l519.0866 0l0 250.48817l-519.0866 0z" fill-rule="evenodd"/><path fill="#ffffff" d="m108.29341 72.96118l0 110.96875l66.375 0l0 25.140625l-96.359375 0l0 -136.10938l29.984375 0zm113.01596 0l0 136.10938l-29.984375 0l0 -136.10938l29.984375 0zm100.447464 0q16.46875 0 27.78125 10.625q11.3125 10.609375 11.3125 26.984375q0 12.859375 -5.359375 21.28125q-5.34375 8.421875 -16.234375 12.796875l0 0.375q9.578125 2.515625 14.703125 11.453125q5.125 8.9375 5.59375 27.359375q0.359375 18.4375 5.296875 25.234375l-29.96875 0q-2.609375 -6.609375 -3.546875 -21.40625q-1.390625 -20.109375 -6.75 -25.921875q-5.34375 -5.828125 -16.421875 -5.828125l-30.625 0l0 53.15625l-29.98439 0l0 -136.10938l74.20314 0zm-10.8125 61.546875q9.40625 0 14.65625 -4.5625q5.265625 -4.5625 5.265625 -14.90625q0 -9.671875 -5.078125 -14.234375q-5.0625 -4.5625 -14.84375 -4.5625l-33.40625 0l0 38.265625l33.40625 0zm148.49832 -61.546875q16.46875 0 27.78125 10.625q11.3125 10.609375 11.3125 26.984375q0 12.859375 -5.359375 21.28125q-5.34375 8.421875 -16.234375 12.796875l0 0.375q9.578125 2.515625 14.703125 11.453125q5.125 8.9375 5.59375 27.359375q0.359375 18.4375 5.296875 25.234375l-29.96875 0q-2.609375 -6.609375 -3.546875 -21.40625q-1.390625 -20.109375 -6.75 -25.921875q-5.34375 -5.828125 -16.421875 -5.828125l-30.625 0l0 53.15625l-29.984375 0l0 -136.10938l74.203125 0zm-10.8125 61.546875q9.40625 0 14.65625 -4.5625q5.265625 -4.5625 5.265625 -14.90625q0 -9.671875 -5.078125 -14.234375q-5.0625 -4.5625 -14.84375 -4.5625l-33.40625 0l0 38.265625l33.40625 0z" fill-rule="nonzero"/><path fill="#000000" fill-opacity="0.0" d="m584.8963 10.283464l350.33075 0l0 261.79526l-350.33075 0z" fill-rule="evenodd"/><path fill="#000000" d="m689.82416 213.28346q-17.8125 0 -27.390625 -10.359375q-9.578125 -10.375 -9.578125 -29.0l0 -73.59375q0 -18.625 9.578125 -28.984375q9.578125 -10.374996 27.390625 -10.374996q17.8125 0 27.375 10.374996q9.578125 10.359375 9.578125 28.984375l0 16.15625l-29.109375 0l0 -17.5625q0 -9.640625 -7.25 -9.640625q-7.25 0 -7.25 9.640625l0 76.609375q0 9.4375 7.25 9.4375q7.25 0 7.25 -9.4375l0 -23.25l-11.0 0l0 -28.3125l40.109375 0l0 49.953125q0 18.625 -9.578125 29.0q-9.5625 10.359375 -27.375 10.359375zm77.99689 0q-17.609375 0 -27.09375 -10.265625q-9.46875 -10.265625 -9.46875 -28.296875l0 -75.1875q0 -18.03125 9.46875 -28.296875q9.484375 -10.265621 27.09375 -10.265621q17.625 0 27.078125 10.265621q9.46875 10.265625 9.46875 28.296875l0 18.953125l-29.109375 0l0 -20.359375q0 -8.84375 -6.84375 -8.84375q-6.84375 0 -6.84375 8.84375l0 78.203125q0 8.640625 6.84375 8.640625q6.84375 0 6.84375 -8.640625l0 -25.5625l29.109375 0l0 23.953125q0 18.03125 -9.46875 28.296875q-9.453125 10.265625 -27.078125 10.265625zm58.64691 -122.0l-23.0 0l0 -28.312496l76.3125 0l0 28.312496l-23.0 0l0 120.0l-30.3125 0l0 -120.0z" fill-rule="nonzero"/></g></svg>