<svg version="1.1" viewBox="0.0 0.0 963.1863517060367 282.3622047244094" fill="none" stroke="none" stroke-linecap="square" stroke-miterlimit="10" xmlns:xlink="http://www.w3.org/1999/xlink" xmlns="http://www.w3.org/2000/svg"><clipPath id="p.0"><path d="m0 0l963.18634 0l0 282.3622l-963.18634 0l0 -282.3622z" clip-rule="nonzero"/></clipPath><g clip-path="url(#p.0)"><path fill="#000000" fill-opacity="0.0" d="m0 0l963.18634 0l0 282.3622l-963.18634 0z" fill-rule="evenodd"/><path fill="#f8ded9" d="m382.24014 56.859123l0 0c0 -23.587814 19.121704 -42.70952 42.709534 -42.70952l484.84866 0c11.3272705 0 22.190613 4.4997387 30.200195 12.509327c8.0095825 8.009588 12.509338 18.87292 12.509338 30.20019l0 170.83295c0 23.587814 -19.121704 42.70952 -42.709534 42.70952l-484.84866 0c-23.58783 0 -42.709534 -19.121704 -42.709534 -42.70952z" fill-rule="evenodd"/><path stroke="#a626aa" stroke-width="12.0" stroke-linejoin="round" stroke-linecap="butt" d="m382.24014 56.859123l0 0c0 -23.587814 19.121704 -42.70952 42.709534 -42.70952l484.84866 0c11.3272705 0 22.190613 4.4997387 30.200195 12.509327c8.0095825 8.009588 12.509338 18.87292 12.509338 30.20019l0 170.83295c0 23.587814 -19.121704 42.70952 -42.709534 42.70952l-484.84866 0c-23.58783 0 -42.709534 -19.121704 -42.709534 -42.70952z" fill-rule="evenodd"/><path fill="#a626aa" d="m7.492126 52.691185l0 0c0 -24.738792 20.054754 -44.79355 44.793545 -44.79355l470.41293 0c11.879944 0 23.273376 4.7193065 31.673767 13.119726c8.400452 8.400419 13.119751 19.793835 13.119751 31.67382l0 179.16882c0 24.738785 -20.054749 44.793533 -44.793518 44.793533l-470.41293 0c-24.73879 0 -44.793545 -20.054749 -44.793545 -44.793533z" fill-rule="evenodd"/><path fill="#000000" fill-opacity="0.0" d="m27.948898 17.03056l519.0866 0l0 250.48817l-519.0866 0z" fill-rule="evenodd"/><path fill="#ffffff" d="m108.29341 72.96118l0 110.96875l66.375 0l0 25.140625l-96.359375 0l0 -136.10938l29.984375 0zm113.01596 0l0 136.10938l-29.984375 0l0 -136.10938l29.984375 0zm100.447464 0q16.46875 0 27.78125 10.625q11.3125 10.609375 11.3125 26.984375q0 12.859375 -5.359375 21.28125q-5.34375 8.421875 -16.234375 12.796875l0 0.375q9.578125 2.515625 14.703125 11.453125q5.125 8.9375 5.59375 27.359375q0.359375 18.4375 5.296875 25.234375l-29.96875 0q-2.609375 -6.609375 -3.546875 -21.40625q-1.390625 -20.109375 -6.75 -25.921875q-5.34375 -5.828125 -16.421875 -5.828125l-30.625 0l0 53.15625l-29.98439 0l0 -136.10938l74.20314 0zm-10.8125 61.546875q9.40625 0 14.65625 -4.5625q5.265625 -4.5625 5.265625 -14.90625q0 -9.671875 -5.078125 -14.234375q-5.0625 -4.5625 -14.84375 -4.5625l-33.40625 0l0 38.265625l33.40625 0zm148.49832 -61.546875q16.46875 0 27.78125 10.625q11.3125 10.609375 11.3125 26.984375q0 12.859375 -5.359375 21.28125q-5.34375 8.421875 -16.234375 12.796875l0 0.375q9.578125 2.515625 14.703125 11.453125q5.125 8.9375 5.59375 27.359375q0.359375 18.4375 5.296875 25.234375l-29.96875 0q-2.609375 -6.609375 -3.546875 -21.40625q-1.390625 -20.109375 -6.75 -25.921875q-5.34375 -5.828125 -16.421875 -5.828125l-30.625 0l0 53.15625l-29.984375 0l0 -136.10938l74.203125 0zm-10.8125 61.546875q9.40625 0 14.65625 -4.5625q5.265625 -4.5625 5.265625 -14.90625q0 -9.671875 -5.078125 -14.234375q-5.0625 -4.5625 -14.84375 -4.5625l-33.40625 0l0 38.265625l33.40625 0z" fill-rule="nonzero"/><path fill="#000000" fill-opacity="0.0" d="m582.15094 17.031496l350.3307 0l0 250.48819l-350.3307 0z" fill-rule="evenodd"/><path fill="#000000" d="m612.3179 67.68086l34.859375 0q17.359375 0 26.296875 9.59375q8.9375 9.578125 8.9375 27.359375l0 13.140625q0 17.78125 -8.9375 27.375q-8.9375 9.578125 -26.296875 9.578125l-5.9375 0l0 54.34375l-28.921875 0l0 -141.39062zm34.859375 60.046875q3.375 0 4.84375 -1.640625q1.484375 -1.640625 1.484375 -6.96875l0 -15.828125q0 -5.328125 -1.484375 -6.96875q-1.46875 -1.640625 -4.84375 -1.640625l-5.9375 0l0 33.046875l5.9375 0zm38.733887 -60.046875l65.140625 0l0 27.0l-36.21875 0l0 27.328125l28.78125 0l0 27.0l-28.78125 0l0 33.0625l36.21875 0l0 27.0l-65.140625 0l0 -141.39062zm69.20819 0l33.359375 0l17.703125 83.359375l-0.375 0.109375l-3.59375 -83.46875l26.625 0l0 141.39062l-28.59375 0l-22.46875 -100.90625l0.375 -0.109375l3.59375 101.015625l-26.625 0l0 -141.39062zm81.41022 0l33.359375 0l17.703125 83.359375l-0.375 0.109375l-3.59375 -83.46875l26.625 0l0 141.39062l-28.59375 0l-22.46875 -100.90625l0.375 -0.109375l3.59375 101.015625l-26.625 0l0 -141.39062z" fill-rule="nonzero"/></g></svg>