<svg version="1.1" viewBox="0.0 0.0 621.2887139107612 157.4041994750656" fill="none" stroke="none" stroke-linecap="square" stroke-miterlimit="10" xmlns:xlink="http://www.w3.org/1999/xlink" xmlns="http://www.w3.org/2000/svg"><clipPath id="p.0"><path d="m0 0l621.2887 0l0 157.4042l-621.2887 0l0 -157.4042z" clip-rule="nonzero"/></clipPath><g clip-path="url(#p.0)"><path fill="#000000" fill-opacity="0.0" d="m0 0l621.2887 0l0 157.4042l-621.2887 0z" fill-rule="evenodd"/><path fill="#6aa84f" d="m6.8950133 31.9401l0 0c0 -12.912994 10.46805 -23.381044 23.381044 -23.381044l560.73395 0c6.20105 0 12.148132 2.4633532 16.532898 6.8481493c4.3848267 4.384797 6.8481445 10.331857 6.8481445 16.532894l0 93.52137c0 12.912994 -10.468018 23.381042 -23.381042 23.381042l-560.73395 0c-12.912994 0 -23.381044 -10.468048 -23.381044 -23.381042z" fill-rule="evenodd"/><path fill="#000000" fill-opacity="0.0" d="m36.013123 -3.511811l549.2598 0l0 155.1181l-549.2598 0z" fill-rule="evenodd"/><path fill="#ffffff" d="m107.268036 113.00819l0 -80.171875l25.96875 0q14.765625 0 19.25 1.203125q6.890625 1.796875 11.53125 7.84375q4.65625 6.046875 4.65625 15.609375q0 7.390625 -2.6875 12.421875q-2.671875 5.03125 -6.796875 7.90625q-4.125 2.859375 -8.390625 3.796875q-5.796875 1.140625 -16.796875 1.140625l-10.546875 0l0 30.25l-16.1875 0zm16.1875 -66.609375l0 22.75l8.859375 0q9.5625 0 12.78125 -1.25q3.234375 -1.265625 5.0625 -3.9375q1.84375 -2.6875 1.84375 -6.25q0 -4.375 -2.578125 -7.21875q-2.5625 -2.84375 -6.5 -3.546875q-2.90625 -0.546875 -11.65625 -0.546875l-7.8125 0zm73.109375 66.609375l-15.359375 0l0 -58.078125l14.265625 0l0 8.25q3.671875 -5.84375 6.59375 -7.703125q2.921875 -1.859375 6.640625 -1.859375q5.25 0 10.125 2.890625l-4.765625 13.40625q-3.875 -2.515625 -7.21875 -2.515625q-3.21875 0 -5.46875 1.78125q-2.234375 1.765625 -3.53125 6.421875q-1.28125 4.640625 -1.28125 19.46875l0 17.9375zm28.882812 -65.953125l0 -14.21875l15.359375 0l0 14.21875l-15.359375 0zm0 65.953125l0 -58.078125l15.359375 0l0 58.078125l-15.359375 0zm83.94531 0l-15.375 0l0 -29.640625q0 -9.40625 -0.984375 -12.171875q-0.984375 -2.765625 -3.203125 -4.296875q-2.203125 -1.53125 -5.328125 -1.53125q-3.984375 0 -7.15625 2.1875q-3.171875 2.1875 -4.359375 5.796875q-1.171875 3.609375 -1.171875 13.34375l0 26.3125l-15.359375 0l0 -58.078125l14.265625 0l0 8.53125q7.609375 -9.84375 19.140625 -9.84375q5.09375 0 9.296875 1.828125q4.21875 1.828125 6.375 4.671875q2.15625 2.84375 3.0 6.453125q0.859375 3.609375 0.859375 10.34375l0 36.09375zm42.210938 -58.078125l0 12.25l-10.5 0l0 23.40625q0 7.109375 0.296875 8.28125q0.3125 1.171875 1.375 1.9375q1.0625 0.765625 2.59375 0.765625q2.140625 0 6.1875 -1.46875l1.3125 11.921875q-5.359375 2.296875 -12.140625 2.296875q-4.15625 0 -7.5 -1.390625q-3.328125 -1.40625 -4.890625 -3.609375q-1.5625 -2.21875 -2.15625 -6.0q-0.5 -2.671875 -0.5 -10.828125l0 -25.3125l-7.046875 0l0 -12.25l7.046875 0l0 -11.546875l15.421875 -8.96875l0 20.515625l10.5 0zm10.671875 -7.875l0 -14.21875l15.359375 0l0 14.21875l-15.359375 0zm0 65.953125l0 -58.078125l15.359375 0l0 58.078125l-15.359375 0zm83.94531 0l-15.375 0l0 -29.640625q0 -9.40625 -0.984375 -12.171875q-0.984375 -2.765625 -3.203125 -4.296875q-2.203125 -1.53125 -5.328125 -1.53125q-3.984375 0 -7.15625 2.1875q-3.171875 2.1875 -4.359375 5.796875q-1.171875 3.609375 -1.171875 13.34375l0 26.3125l-15.359375 0l0 -58.078125l14.265625 0l0 8.53125q7.609375 -9.84375 19.140625 -9.84375q5.09375 0 9.296875 1.828125q4.21875 1.828125 6.375 4.671875q2.15625 2.84375 3.0 6.453125q0.859375 3.609375 0.859375 10.34375l0 36.09375zm14.1640625 3.828125l17.546875 2.140625q0.4375 3.0625 2.03125 4.203125q2.1875 1.6406174 6.890625 1.6406174q6.015625 0 9.015625 -1.7968674q2.03125 -1.203125 3.0625 -3.890625q0.71875 -1.90625 0.71875 -7.0625l0 -8.46875q-6.890625 9.40625 -17.390625 9.40625q-11.703125 0 -18.546875 -9.90625q-5.359375 -7.8125 -5.359375 -19.46875q0 -14.59375 7.03125 -22.296875q7.03125 -7.71875 17.46875 -7.71875q10.78125 0 17.78125 9.453125l0 -8.140625l14.3750305 0l0 52.109375q0 10.296875 -1.703125 15.375q-1.6875305 5.0937424 -4.7500305 7.9843674q-3.0625 2.90625 -8.171875 4.546875q-5.109375 1.640625 -12.9375 1.640625q-14.765625 0 -20.953125 -5.0625q-6.171875 -5.0625 -6.171875 -12.828117q0 -0.765625 0.0625 -1.859375zm13.71875 -34.078125q0 9.25 3.578125 13.546875q3.59375 4.28125 8.84375 4.28125q5.625 0 9.5 -4.390625q3.890625 -4.40625 3.890625 -13.046875q0 -9.03125 -3.71875 -13.40625q-3.71875 -4.375 -9.40625 -4.375q-5.515625 0 -9.109375 4.296875q-3.578125 4.296875 -3.578125 13.09375z" fill-rule="nonzero"/></g></svg>