<svg version="1.1" viewBox="0.0 0.0 621.2887139107612 157.4041994750656" fill="none" stroke="none" stroke-linecap="square" stroke-miterlimit="10" xmlns:xlink="http://www.w3.org/1999/xlink" xmlns="http://www.w3.org/2000/svg"><clipPath id="p.0"><path d="m0 0l621.2887 0l0 157.4042l-621.2887 0l0 -157.4042z" clip-rule="nonzero"/></clipPath><g clip-path="url(#p.0)"><path fill="#000000" fill-opacity="0.0" d="m0 0l621.2887 0l0 157.4042l-621.2887 0z" fill-rule="evenodd"/><path fill="#3c78d8" d="m6.8950133 31.9401l0 0c0 -12.912994 10.46805 -23.381044 23.381044 -23.381044l560.73395 0c6.20105 0 12.148132 2.4633532 16.532898 6.8481493c4.3848267 4.384797 6.8481445 10.331857 6.8481445 16.532894l0 93.52137c0 12.912994 -10.468018 23.381042 -23.381042 23.381042l-560.73395 0c-12.912994 0 -23.381044 -10.468048 -23.381044 -23.381042z" fill-rule="evenodd"/><path fill="#000000" fill-opacity="0.0" d="m32.94488 2.2860892l549.2598 0l0 155.11812l-549.2598 0z" fill-rule="evenodd"/><path fill="#ffffff" d="m62.656826 92.71233l15.750004 -1.53125q1.421875 7.9375 5.765625 11.65625q4.359375 3.71875 11.734375 3.71875q7.828125 0 11.78125 -3.3125q3.96875 -3.3125 3.96875 -7.734375q0 -2.84375 -1.671875 -4.84375q-1.65625 -2.0 -5.8125 -3.46875q-2.84375 -0.984375 -12.96875 -3.5q-13.015625 -3.234375 -18.265625 -7.9375q-7.375 -6.609375 -7.375 -16.124996q0 -6.125 3.46875 -11.453125q3.46875 -5.34375 10.0 -8.125q6.546875 -2.796875 15.78125 -2.796875q15.09375 0 22.71875 6.625q7.640625 6.609375 8.015625 17.65625l-16.1875 0.71875q-1.03125 -6.1875 -4.453125 -8.890625q-3.421875 -2.703125 -10.25 -2.703125q-7.0625 0 -11.046875 2.890625q-2.578125 1.859375 -2.578125 4.984375q0 2.84375 2.40625 4.859375q3.0625 2.5781212 14.875 5.374996q11.8125 2.78125 17.46875 5.765625q5.671875 2.96875 8.859375 8.140625q3.203125 5.171875 3.203125 12.765625q0 6.890625 -3.828125 12.90625q-3.828125 6.015625 -10.828125 8.953125q-7.0 2.921875 -17.4375 2.921875q-15.203125 0 -23.359375 -7.03125q-8.140625 -7.03125 -9.734379 -20.484375zm129.34375 -14.8125l-15.15625 2.734375q-0.765625 -4.546875 -3.46875 -6.84375q-2.703125 -2.296875 -7.03125 -2.296875q-5.734375 0 -9.15625 3.96875q-3.421875 3.96875 -3.421875 13.265625q0 10.328125 3.46875 14.59375q3.484375 4.265625 9.328125 4.265625q4.375 0 7.15625 -2.484375q2.796875 -2.484375 3.953125 -8.5625l15.09375 2.578125q-2.359375 10.390625 -9.03125 15.703125q-6.671875 5.296875 -17.875 5.296875q-12.75 0 -20.328125 -8.03125q-7.5625 -8.046875 -7.5625 -22.265625q0 -14.390625 7.59375 -22.390625q7.609375 -8.015621 20.5625 -8.015621q10.609375 0 16.875 4.5625q6.265625 4.562496 9.0 13.921871zm26.960938 -39.26562l0 29.468746q7.4375 -8.687496 17.765625 -8.687496q5.3125 0 9.578125 1.96875q4.265625 1.96875 6.421875 5.031246q2.15625 3.0625 2.953125 6.78125q0.796875 3.71875 0.796875 11.53125l0 34.078125l-15.375 0l0 -30.6875q0 -9.125 -0.875 -11.578125q-0.875 -2.46875 -3.09375 -3.921875q-2.203125 -1.453125 -5.546875 -1.453125q-3.828125 0 -6.84375 1.859375q-3.0 1.859375 -4.390625 5.609375q-1.390625 3.75 -1.390625 11.078125l0 29.09375l-15.375 0l0 -80.171875l15.375 0zm86.72656 61.687496l15.3125 2.5625q-2.953125 8.421875 -9.328125 12.828125q-6.359375 4.40625 -15.9375 4.40625q-15.140625 0 -22.421875 -9.90625q-5.734375 -7.921875 -5.734375 -20.015625q0 -14.4375 7.546875 -22.609375q7.546875 -8.171871 19.078125 -8.171871q12.96875 0 20.453125 8.562496q7.5 8.546875 7.171875 26.21875l-38.5 0q0.15625 6.828125 3.703125 10.640625q3.5625 3.796875 8.875 3.796875q3.609375 0 6.0625 -1.96875q2.46875 -1.96875 3.71875 -6.34375zm0.875 -15.53125q-0.15625 -6.671875 -3.4375 -10.140625q-3.28125 -3.484375 -7.984375 -3.484375q-5.03125 0 -8.3125 3.671875q-3.28125 3.65625 -3.234375 9.953125l22.96875 0zm81.05469 34.015625l-14.28125 0l0 -8.53125q-3.546875 4.96875 -8.390625 7.40625q-4.84375 2.4375 -9.765625 2.4375q-10.0 0 -17.140625 -8.0625q-7.140625 -8.078125 -7.140625 -22.515625q0 -14.765625 6.9375 -22.4375q6.953125 -7.687496 17.5625 -7.687496q9.734375 0 16.84375 8.093746l0 -28.874996l15.375 0l0 80.171875zm-41.015625 -30.296875q0 9.296875 2.5625 13.453125q3.71875 6.015625 10.390625 6.015625q5.3125 0 9.03125 -4.515625q3.71875 -4.515625 3.71875 -13.484375q0 -10.0 -3.609375 -14.40625q-3.609375 -4.40625 -9.25 -4.40625q-5.46875 0 -9.15625 4.359375q-3.6875 4.34375 -3.6875 12.984375zm94.38281 30.296875l0 -8.703125q-3.171875 4.65625 -8.34375 7.34375q-5.15625 2.671875 -10.90625 2.671875q-5.84375 0 -10.5 -2.5625q-4.640625 -2.578125 -6.71875 -7.21875q-2.078125 -4.65625 -2.078125 -12.859375l0 -36.749996l15.359375 0l0 26.687496q0 12.25 0.84375 15.015625q0.859375 2.75 3.09375 4.375q2.25 1.609375 5.6875 1.609375q3.9375 0 7.046875 -2.15625q3.125 -2.171875 4.265625 -5.359375q1.15625 -3.203125 1.15625 -15.671875l0 -24.499996l15.375 0l0 58.07812l-14.28125 0zm30.195312 0l0 -80.171875l15.359375 0l0 80.171875l-15.359375 0zm64.74216 -18.484375l15.3125 2.5625q-2.953125 8.421875 -9.328125 12.828125q-6.359375 4.40625 -15.9375 4.40625q-15.1405945 0 -22.421844 -9.90625q-5.734375 -7.921875 -5.734375 -20.015625q0 -14.4375 7.546875 -22.609375q7.5468445 -8.171871 19.078094 -8.171871q12.96875 0 20.453125 8.562496q7.5 8.546875 7.171875 26.21875l-38.5 0q0.15625 6.828125 3.703125 10.640625q3.5625 3.796875 8.875 3.796875q3.609375 0 6.0625 -1.96875q2.46875 -1.96875 3.71875 -6.34375zm0.875 -15.53125q-0.15625 -6.671875 -3.4375 -10.140625q-3.28125 -3.484375 -7.984375 -3.484375q-5.03125 0 -8.3125 3.671875q-3.28125 3.65625 -3.234375 9.953125l22.96875 0z" fill-rule="nonzero"/></g></svg>