<?xml version="1.0" standalone="no"?>
<!DOCTYPE svg PUBLIC "-//W3C//DTD SVG 20010904//EN"
 "http://www.w3.org/TR/2001/REC-SVG-20010904/DTD/svg10.dtd">
<svg version="1.0" xmlns="http://www.w3.org/2000/svg"
 width="600.000000pt" height="512.000000pt" viewBox="0 0 600.000000 512.000000"
 preserveAspectRatio="xMidYMid meet">

<g transform="translate(0.000000,512.000000) scale(0.100000,-0.100000)"
fill="#000000" stroke="none">
<path d="M2765 4630 c-4 -6 -60 -10 -135 -10 -75 0 -131 -4 -135 -10 -3 -6
-48 -10 -100 -10 -52 0 -97 -4 -100 -10 -3 -5 -36 -10 -72 -10 -56 0 -66 -3
-70 -20 -4 -17 -14 -20 -54 -20 -26 0 -51 -4 -54 -10 -3 -5 -21 -10 -40 -10
-19 0 -37 -4 -40 -10 -3 -5 -14 -10 -23 -10 -9 0 -44 -14 -77 -30 -33 -17 -67
-30 -77 -30 -9 0 -19 -8 -22 -18 -5 -16 -67 -42 -99 -42 -20 0 -47 -33 -47
-58 0 -11 -5 -24 -10 -27 -6 -4 -10 -58 -10 -128 -1 -115 -2 -124 -25 -149
-13 -16 -31 -28 -39 -28 -18 0 -46 54 -46 90 0 15 -9 35 -20 45 -11 10 -20 23
-20 29 0 6 -16 19 -34 28 -30 14 -37 15 -61 2 -15 -8 -40 -14 -55 -14 -19 0
-36 -9 -49 -26 -21 -26 -21 -36 -21 -559 l0 -532 23 -34 c15 -22 32 -35 50
-37 15 -2 27 -8 27 -13 0 -5 10 -9 23 -9 12 0 31 -6 42 -13 93 -60 223 -70
319 -23 30 15 59 33 66 41 7 8 18 15 24 15 16 0 56 42 56 58 0 7 11 17 25 22
14 5 32 27 44 53 11 24 27 50 36 57 9 7 15 29 15 54 0 51 12 70 109 169 49 50
83 77 98 77 12 0 25 5 28 10 3 6 21 10 39 10 17 0 36 4 42 9 5 5 34 12 64 14
30 3 80 11 110 18 33 7 166 13 334 16 169 2 285 8 292 14 8 7 14 7 19 -1 4 -6
54 -10 130 -10 72 0 126 -4 130 -10 3 -5 39 -10 79 -10 58 0 79 -4 99 -20 14
-11 34 -20 45 -20 12 0 24 -4 27 -10 3 -5 18 -10 32 -10 16 0 27 -7 30 -20 3
-13 14 -20 29 -20 12 0 26 -4 29 -10 3 -5 21 -10 38 -10 27 0 46 -13 115 -83
62 -62 82 -89 82 -109 0 -28 43 -99 79 -132 13 -12 21 -31 21 -50 0 -36 34
-67 138 -128 55 -33 71 -37 136 -39 60 -1 80 2 108 19 18 11 58 24 88 28 46 6
60 13 87 43 l32 36 0 530 1 530 -45 48 c-43 45 -47 47 -99 47 -30 0 -58 -4
-61 -10 -3 -5 -16 -10 -29 -10 -17 0 -28 -11 -42 -40 -11 -24 -26 -40 -36 -40
-16 0 -18 11 -18 89 0 66 -4 92 -15 101 -19 16 -45 68 -45 90 0 22 -31 50 -57
50 -11 0 -30 11 -43 25 -28 29 -75 55 -101 55 -10 0 -23 9 -29 20 -6 11 -19
20 -28 20 -10 0 -22 4 -27 9 -6 5 -30 12 -55 15 -106 13 -130 19 -146 37 -13
14 -31 19 -70 19 -29 0 -56 5 -59 10 -3 6 -35 10 -70 10 -35 0 -67 5 -70 10
-3 6 -50 10 -106 10 -59 0 -99 4 -99 10 0 6 -98 10 -274 10 -173 0 -277 -4
-281 -10z m721 -55 c5 -12 24 -15 84 -15 57 0 81 -4 90 -15 8 -9 30 -15 60
-15 30 0 52 -6 60 -15 7 -8 26 -15 42 -15 16 0 36 -7 44 -15 9 -9 34 -15 60
-15 30 0 46 -5 50 -15 4 -8 14 -15 24 -15 10 0 23 -7 30 -15 7 -8 20 -15 30
-15 10 0 23 -7 30 -15 7 -8 20 -15 29 -15 10 0 28 -11 40 -24 13 -14 33 -26
45 -28 13 -2 22 -11 24 -25 2 -12 10 -27 18 -33 8 -7 14 -21 14 -30 0 -10 6
-20 13 -22 9 -4 12 -98 13 -426 0 -253 -3 -422 -9 -422 -5 0 -30 18 -55 41
-46 40 -111 79 -132 79 -12 0 -89 32 -133 55 -16 8 -48 15 -72 15 -26 0 -47 6
-55 15 -9 10 -32 15 -74 15 -34 0 -67 5 -73 11 -6 6 -47 13 -92 16 -50 4 -85
11 -92 19 -9 11 -46 14 -153 14 -110 0 -147 3 -162 15 -28 21 -356 22 -374 0
-10 -12 -42 -15 -167 -15 -113 0 -159 -4 -176 -14 -12 -7 -60 -17 -107 -20
-47 -4 -89 -11 -94 -16 -6 -6 -38 -10 -72 -10 -42 0 -65 -5 -74 -15 -8 -9 -30
-15 -60 -15 -34 0 -52 -5 -65 -20 -10 -11 -28 -20 -41 -20 -13 0 -25 -4 -28
-9 -3 -5 -37 -12 -75 -16 -58 -6 -73 -11 -97 -36 -15 -16 -34 -29 -43 -29 -8
0 -22 -7 -32 -16 -10 -9 -25 -14 -32 -11 -16 6 -32 71 -22 87 3 5 7 173 8 372
2 200 7 377 11 393 11 39 84 115 111 115 11 0 33 7 49 15 15 8 33 15 39 15 6
0 19 7 29 17 18 16 74 30 161 40 32 3 52 11 60 24 9 15 24 19 67 19 34 0 64 6
76 15 10 8 35 15 55 15 20 0 42 7 49 15 10 12 38 15 135 15 97 0 125 3 135 15
11 13 72 15 442 15 372 0 429 -2 434 -15z m-2094 -445 c36 0 39 -30 38 -422
l0 -381 26 -28 c14 -15 23 -32 20 -38 -10 -16 -42 -13 -56 4 -7 8 -23 15 -35
15 -12 0 -28 -7 -35 -15 -18 -22 -67 -19 -80 4 -6 13 -10 158 -10 402 l0 383
47 48 c31 32 50 45 57 38 6 -6 18 -10 28 -10z m3188 -45 c7 -8 21 -15 31 -15
18 0 19 -16 19 -429 0 -350 -2 -431 -14 -440 -10 -9 -16 -8 -26 4 -16 19 -84
20 -100 0 -7 -8 -16 -12 -21 -9 -5 3 -9 124 -9 268 0 222 -2 266 -15 276 -12
10 -15 41 -15 161 0 93 4 149 10 149 6 0 20 11 32 25 25 29 87 35 108 10z
m-3000 -667 c0 -163 1 -173 22 -195 31 -33 125 -33 159 0 13 13 43 33 67 45
41 21 44 22 68 5 21 -16 23 -23 18 -58 -8 -53 -49 -112 -95 -136 -21 -10 -41
-23 -44 -29 -4 -6 -28 -22 -55 -35 -36 -18 -59 -24 -88 -20 -34 4 -42 1 -56
-20 -20 -31 -43 -32 -74 -2 -16 15 -37 22 -65 23 -77 2 -127 15 -138 36 -13
25 -17 137 -6 156 5 6 24 12 43 12 19 0 45 7 57 15 20 13 25 13 45 -1 12 -8
22 -22 22 -31 0 -23 -29 -53 -51 -53 -26 0 -32 -17 -10 -29 32 -18 51 -13 87
23 32 32 34 38 34 102 0 50 5 72 17 86 15 17 17 37 14 138 -1 66 0 124 4 130
19 31 25 -4 25 -162z m2440 47 c14 -8 39 -14 56 -15 17 0 37 -7 44 -15 7 -8
21 -15 31 -15 11 0 19 -7 19 -16 0 -8 14 -29 30 -46 35 -35 36 -39 11 -62 -17
-15 -22 -16 -52 -3 -19 8 -40 21 -48 30 -17 21 -59 22 -82 1 -27 -25 -39 -8
-39 56 0 32 -4 62 -10 65 -14 9 -12 35 3 35 6 -1 23 -7 37 -15z m-2110 -65 l0
-60 -38 0 c-40 0 -67 -14 -120 -64 -32 -30 -34 -30 -48 -12 -17 23 -19 62 -3
71 5 4 14 18 19 31 6 14 18 27 27 30 10 3 26 10 35 15 10 5 24 9 33 9 8 0 19
9 25 20 7 13 21 20 40 20 30 0 30 0 30 -60z m2486 -184 l1 -117 33 -34 c40
-42 62 -50 91 -35 21 12 21 12 -12 46 -30 31 -32 35 -19 59 23 43 54 42 100
-1 58 -55 56 -87 -12 -149 -48 -44 -56 -48 -114 -53 -52 -4 -69 -1 -99 17 -20
11 -42 21 -50 21 -7 0 -26 7 -42 15 -15 8 -44 22 -64 30 -38 17 -41 20 -108
95 -40 46 -59 103 -42 129 7 11 12 11 31 -2 12 -8 28 -13 35 -11 6 3 18 -2 25
-11 9 -10 31 -15 75 -15 57 0 66 3 99 34 25 22 39 45 43 70 3 21 11 35 17 33
7 -2 11 -45 12 -121z"/>
<path d="M2754 4390 c-26 -10 -242 -30 -333 -30 -78 0 -77 2 -65 -72 7 -39 24
-53 24 -19 0 31 27 44 93 45 l62 1 18 -208 c19 -214 17 -237 -19 -237 -8 0
-14 -4 -14 -10 0 -12 41 -13 129 -4 33 4 61 11 61 15 0 5 -8 9 -19 9 -10 0
-23 6 -29 13 -16 18 -52 419 -39 435 6 7 34 12 73 12 59 0 65 -2 76 -25 16
-35 32 -31 24 6 -3 17 -6 42 -6 55 0 26 -4 27 -36 14z"/>
<path d="M2930 4381 c0 -5 12 -12 26 -15 l26 -7 -7 -173 c-8 -195 -3 -225 48
-274 43 -41 79 -54 157 -54 153 -1 208 71 211 277 2 149 10 198 37 210 39 17
24 25 -53 25 -43 0 -75 -4 -75 -10 0 -5 6 -10 14 -10 32 0 35 -23 25 -189 -7
-126 -13 -171 -26 -194 -56 -95 -179 -99 -240 -8 -21 30 -23 45 -22 140 1 58
4 140 8 181 5 68 8 75 29 78 39 6 24 19 -30 26 -75 8 -128 7 -128 -3z"/>
<path d="M3700 4113 c-156 -235 -162 -243 -195 -243 -29 0 -34 -16 -7 -23 61
-17 124 -28 129 -23 3 3 -1 14 -10 23 -14 17 -13 22 16 71 25 41 37 52 57 52
34 -1 141 -27 151 -37 5 -5 11 -34 15 -66 6 -54 5 -59 -15 -64 -11 -3 -21 -8
-21 -12 0 -9 179 -45 187 -38 3 3 -7 16 -21 29 -24 21 -33 49 -83 273 -30 138
-58 253 -62 256 -3 3 -67 -86 -141 -198z m119 -39 c7 -41 11 -78 8 -80 -6 -7
-101 6 -117 16 -8 5 2 28 34 79 26 40 50 70 55 67 4 -3 14 -40 20 -82z"/>
<path d="M2055 4301 c-80 -19 -126 -93 -106 -168 14 -50 22 -57 148 -127 57
-31 107 -66 113 -76 29 -53 -11 -109 -82 -117 -42 -5 -50 -3 -78 25 -16 17
-30 40 -30 51 0 28 -16 27 -23 -1 -10 -40 7 -92 33 -106 33 -17 130 -9 177 15
65 34 91 117 58 187 -12 25 -40 47 -118 91 -128 72 -137 80 -137 122 0 27 6
37 33 53 45 28 74 25 108 -11 25 -27 29 -28 29 -11 0 11 -3 34 -6 51 -6 29 -9
31 -48 30 -22 -1 -55 -4 -71 -8z"/>
<path d="M2580 3239 c-221 -47 -441 -176 -614 -360 l-76 -81 0 -124 c0 -68 -3
-124 -6 -124 -3 0 -52 47 -109 105 -79 80 -110 105 -130 105 -38 0 -1035 -997
-1035 -1035 0 -21 92 -118 481 -508 479 -479 530 -527 557 -527 8 0 77 61 152
135 l137 135 92 0 91 0 0 -144 0 -145 48 -3 47 -3 3 -72 3 -73 69 0 70 0 0
125 0 125 50 0 50 0 0 -45 0 -45 113 0 c75 0 117 -4 125 -12 7 -7 12 -29 12
-50 l0 -38 230 0 230 0 0 38 c0 21 5 43 12 50 8 8 55 12 145 12 l133 0 0 30 0
31 58 -3 57 -3 3 -107 3 -108 59 0 59 0 3 73 3 72 52 3 c50 3 52 4 55 35 l3
32 818 3 817 2 0 75 0 75 -172 2 -173 3 -3 543 c-1 298 -3 542 -5 542 -1 0
-28 -9 -60 -20 -31 -11 -62 -20 -69 -20 -7 0 -50 -14 -96 -32 l-82 -32 2 -165
3 -165 38 -9 c26 -6 39 -16 42 -31 3 -11 4 -154 3 -316 l-3 -295 -197 -3 -198
-2 0 385 c0 212 -3 385 -7 385 -18 0 -112 -30 -168 -52 -33 -14 -72 -28 -88
-31 l-27 -7 0 172 c0 210 -2 218 -44 218 -37 0 -56 -15 -56 -45 0 -12 -9 -30
-20 -40 -11 -10 -20 -14 -20 -9 0 5 0 183 0 396 0 213 -4 389 -8 392 -5 3 -8
36 -7 73 l1 68 -116 118 c-65 64 -121 117 -126 117 -5 0 -21 11 -36 25 -15 14
-30 25 -34 25 -3 0 -26 13 -50 30 -51 34 -151 79 -249 111 -67 22 -84 23 -435
25 -203 2 -385 -2 -410 -7z m840 -83 c30 -10 60 -21 65 -25 6 -5 30 -16 55
-25 77 -30 241 -147 337 -242 91 -89 93 -93 93 -138 l0 -46 -1004 0 c-1098 0
-1016 -4 -1016 55 0 68 325 344 439 372 14 3 36 12 47 20 28 18 77 32 134 40
25 3 47 7 50 10 3 3 171 3 375 1 320 -4 377 -7 425 -22z m-1707 -484 c34 -32
88 -84 120 -117 l57 -58 0 -198 0 -198 -46 21 c-25 11 -73 36 -106 55 -67 39
-122 50 -156 31 -14 -8 -37 -45 -58 -93 -63 -142 -66 -146 -134 -191 -36 -24
-78 -53 -95 -65 -16 -11 -36 -24 -44 -29 -11 -6 -11 -12 -1 -31 7 -13 14 -26
16 -28 2 -2 32 8 66 22 35 15 82 31 104 37 38 9 104 62 104 82 0 23 20 2 43
-46 36 -73 34 -106 -8 -167 -19 -28 -35 -56 -35 -61 0 -5 -10 -24 -22 -41 -37
-52 -47 -76 -85 -202 -47 -158 -71 -248 -67 -257 2 -3 24 -13 49 -22 45 -15
46 -15 54 7 5 12 21 50 36 84 14 35 33 88 40 118 8 30 26 78 40 106 26 50 90
129 106 129 19 0 42 -111 48 -235 l6 -130 45 -5 45 -5 20 -62 c16 -51 23 -61
35 -53 20 13 110 13 110 0 0 -16 -37 -30 -79 -30 l-41 0 0 -48 c0 -48 0 -48
-113 -160 -63 -62 -118 -112 -124 -112 -9 0 -819 803 -945 938 -33 35 -58 67
-56 73 5 14 991 999 1000 999 5 0 37 -26 71 -58z m847 -782 l0 -720 -302 2
-303 3 0 60 0 60 134 5 134 5 3 28 3 27 -134 0 c-112 0 -134 2 -139 16 -12 31
-7 389 6 402 8 8 53 12 135 12 l123 0 0 30 0 30 -123 0 c-82 0 -127 4 -135 12
-9 9 -12 106 -12 373 0 199 3 365 7 368 3 4 141 7 305 7 l298 0 0 -720z m1418
343 l-3 -377 -135 -1 -135 0 0 -35 0 -35 135 -1 135 -1 3 -212 2 -211 -140 0
-140 0 0 -30 0 -30 140 0 140 0 0 -65 0 -65 -305 0 -305 0 0 720 0 720 305 0
305 0 -2 -377z m-1238 22 l0 -226 25 -24 c24 -25 26 -25 203 -25 160 0 181 2
195 18 14 16 17 52 19 248 l3 229 53 3 52 3 0 -279 0 -280 -52 -17 c-29 -9
-62 -22 -73 -29 -19 -12 -68 -28 -90 -30 -5 -1 -11 -11 -13 -23 -4 -30 26 -30
88 -2 36 17 125 48 138 49 1 0 2 -42 2 -94 0 -98 -4 -106 -49 -106 -10 0 -39
-11 -64 -24 -25 -14 -62 -28 -82 -32 -26 -4 -35 -11 -35 -25 0 -11 6 -22 14
-25 12 -5 88 21 136 46 9 4 30 11 48 15 l33 7 -3 -93 -3 -93 -55 -16 c-30 -9
-64 -22 -75 -28 -11 -6 -37 -18 -57 -26 -21 -8 -38 -21 -38 -29 0 -19 35 -28
49 -14 6 6 11 7 11 3 0 -5 6 -4 13 2 10 9 142 62 153 62 2 0 4 -52 4 -115 l0
-115 -330 0 -330 0 0 115 c0 63 2 115 5 115 9 0 199 -50 215 -57 8 -3 20 -7
26 -8 39 -9 54 -19 54 -35 0 -22 31 -42 48 -31 9 6 12 82 10 312 l-3 304 -22
3 c-17 3 -26 -4 -33 -23 -7 -19 -15 -25 -26 -21 -9 3 -28 9 -42 12 -15 4 -31
10 -37 14 -5 4 -37 13 -70 20 -33 6 -68 16 -77 21 -10 5 -25 9 -33 9 -13 0
-15 37 -15 280 l0 280 55 0 55 0 0 -225z m-868 -253 c11 -11 22 -118 14 -138
-9 -23 -36 0 -36 31 0 12 -9 33 -19 47 -11 13 -23 37 -27 53 -7 27 -6 28 27
21 18 -3 37 -10 41 -14z m842 -148 c17 -3 38 -8 46 -12 8 -3 49 -15 90 -27
l75 -21 3 -92 c3 -108 7 -106 -109 -68 -41 13 -100 29 -131 35 l-58 12 0 96 0
95 26 -6 c15 -4 40 -9 58 -12z m-824 -273 c0 -204 -6 -237 -37 -196 -18 25
-19 365 -1 383 34 34 38 17 38 -187z m2190 180 c16 -31 13 -353 -3 -376 -31
-41 -37 -8 -37 196 0 168 2 199 15 199 8 0 19 -9 25 -19z m-1320 -157 c52 -14
111 -31 130 -38 l35 -12 0 -89 0 -90 -30 3 c-16 2 -55 13 -85 24 -59 21 -60
21 -132 33 l-48 7 0 94 c0 110 -9 106 130 68z m1316 -331 c7 -10 14 -30 14
-44 0 -41 70 -56 96 -21 11 14 13 -9 14 -151 l0 -168 -122 3 -123 3 0 30 c0
28 3 30 45 35 44 5 45 6 45 40 0 34 -1 35 -45 40 -32 4 -46 10 -48 22 -3 14 6
17 45 20 l48 3 2 95 c1 52 2 98 2 103 1 12 13 8 27 -10z m-381 -213 c0 -13
-100 -15 -832 -18 -458 -1 -833 2 -833 6 0 31 22 32 845 30 721 -3 820 -5 820
-18z"/>
<path d="M2611 3114 c-19 -24 -21 -40 -21 -157 0 -112 2 -132 18 -143 26 -20
268 -20 275 1 4 8 7 75 8 150 2 179 5 175 -147 175 -110 0 -113 -1 -133 -26z"/>
<path d="M2960 3127 c-25 -12 -25 -15 -28 -154 -2 -118 0 -144 13 -157 14 -13
44 -16 181 -16 95 0 174 4 185 10 17 10 19 22 19 148 0 104 -4 143 -14 158
-13 17 -29 19 -173 22 -115 2 -165 -1 -183 -11z"/>
<path d="M2462 3044 c-29 -20 -30 -69 -2 -84 15 -8 27 -8 48 2 36 18 41 56 10
80 -28 22 -28 22 -56 2z"/>
<path d="M3402 3048 c-7 -7 -12 -26 -12 -43 0 -53 41 -73 73 -37 22 24 21 55
-1 75 -22 20 -43 22 -60 5z"/>
<path d="M2198 2898 c-21 -21 -24 -68 -6 -86 8 -8 46 -12 103 -12 101 0 115 7
115 56 0 46 -18 55 -112 57 -67 2 -86 -1 -100 -15z"/>
<path d="M3533 2902 c-19 -19 -17 -88 3 -96 9 -3 51 -6 94 -6 43 0 85 3 94 6
21 8 23 92 2 100 -32 12 -180 9 -193 -4z"/>
<path d="M1490 2398 c-31 -33 -34 -63 -13 -105 18 -37 19 -38 73 -38 53 0 56
1 74 36 22 40 17 78 -14 109 -28 28 -93 27 -120 -2z"/>
<path d="M2062 2518 c-12 -6 -25 -21 -28 -32 -3 -12 -4 -124 -2 -250 3 -212 4
-229 22 -242 30 -22 348 -20 370 2 20 19 18 -5 20 268 l2 228 -25 19 c-21 17
-41 19 -180 18 -91 0 -165 -5 -179 -11z"/>
<path d="M2345 1618 c-55 -31 -61 -92 -14 -132 17 -14 41 -26 54 -26 39 0 85
46 85 85 0 25 -8 40 -31 59 -33 28 -62 32 -94 14z"/>
<path d="M2325 1374 c-54 -58 -18 -134 62 -134 34 0 45 5 62 29 28 38 26 72
-4 105 -17 19 -34 26 -60 26 -26 0 -43 -7 -60 -26z"/>
<path d="M3847 2537 c-14 -10 -17 -38 -18 -215 -1 -210 3 -232 41 -232 10 0
20 7 24 15 3 8 6 106 6 217 2 189 0 204 -17 215 -15 10 -23 10 -36 0z"/>
<path d="M3498 1612 c-24 -14 -28 -23 -28 -64 0 -40 4 -50 29 -67 36 -26 57
-26 99 -1 28 17 32 25 32 62 0 48 -5 57 -37 76 -31 16 -63 15 -95 -6z"/>
<path d="M3489 1381 c-19 -15 -23 -27 -20 -62 3 -57 24 -79 73 -79 60 0 88 24
88 75 0 35 -5 48 -26 64 -33 26 -84 27 -115 2z"/>
<path d="M4545 2630 c-24 -6 -148 -44 -210 -64 -5 -1 -23 -8 -38 -14 -16 -7
-37 -12 -48 -12 -11 0 -43 -10 -70 -21 l-49 -21 0 -152 0 -152 53 -22 c28 -12
81 -28 117 -37 36 -9 72 -20 81 -25 9 -4 35 -14 58 -20 l41 -11 0 -204 0 -203
30 -6 c17 -3 44 -9 60 -12 l30 -6 0 496 c0 391 -3 496 -12 495 -7 -1 -26 -5
-43 -9z"/>
</g>
</svg>
